<svg width="255" height="250" viewBox="0 0 255 250" fill="none" xmlns="http://www.w3.org/2000/svg">
<path d="M218.974 156.122L187.03 135.541C185.286 134.417 182.924 134.888 181.77 136.608C180.618 138.325 181.107 140.635 182.858 141.762L209.265 158.774L98.53 197.33L19.5496 146.099L64.7004 129.99C66.6695 129.288 67.6895 127.151 66.9682 125.218C66.2519 123.288 64.0702 122.288 62.1036 122.995L9.81275 141.653C7.90437 142.332 6.90208 144.36 7.49687 146.243V168.362C7.49687 168.797 7.58799 169.206 7.72719 169.593C7.7525 170.772 8.34476 171.918 9.42298 172.618L95.918 228.722C96.5634 229.139 97.2923 229.34 98.0111 229.34C98.7628 229.34 99.4892 229.097 100.122 228.682L219.265 187.201C220.667 186.712 221.58 185.494 221.748 184.136C221.958 183.675 222.079 183.166 222.079 182.628V159.777C222.077 157.953 220.738 156.442 218.974 156.122ZM15.0899 152.134L94.2171 203.459V218.692L15.0899 167.367V152.134ZM101.81 204.087L214.486 164.856V180.963L101.81 220.194V204.087Z" fill="black"/>
<path d="M245.787 78.6477C245.787 76.8263 244.451 75.3152 242.687 74.9951L157.052 19.4194C156.984 19.3747 156.908 19.3499 156.84 19.3102C156.723 19.2457 156.609 19.1812 156.485 19.1291C156.369 19.0794 156.252 19.0397 156.136 19.0025C156.022 18.9653 155.911 18.9305 155.794 18.9057C155.668 18.8784 155.541 18.8611 155.412 18.8462C155.298 18.8338 155.184 18.8189 155.068 18.8164C154.936 18.8139 154.807 18.8214 154.676 18.8313C154.562 18.8387 154.448 18.8487 154.331 18.866C154.197 18.8884 154.066 18.9231 153.934 18.9603C153.855 18.9827 153.777 18.9901 153.699 19.0149L33.5562 60.4765C31.6149 61.1464 30.5873 63.206 31.2074 65.1142V87.2035C31.2074 87.6253 31.2935 88.0248 31.4276 88.402C31.4454 89.5906 32.0402 90.7519 33.126 91.4566L119.606 147.581C120.251 147.998 120.978 148.199 121.699 148.199C122.453 148.199 123.182 147.955 123.815 147.536L242.96 106.077C244.357 105.591 245.266 104.382 245.44 103.032C245.658 102.563 245.787 102.045 245.787 101.496V78.6477ZM154.438 26.6501L232.998 77.6353L122.218 116.181L43.3386 64.9901L154.438 26.6501ZM38.8005 70.9727L117.905 122.31V137.546L38.8005 86.2085V70.9727ZM125.498 122.938L238.194 83.7246V99.8313L125.498 139.047V122.938Z" fill="#FAE060"/>
</svg>
